<svg xmlns="http://www.w3.org/2000/svg" viewBox="0 0 800 600" width="800" height="600">
  <defs>
    <linearGradient id="bg5" x1="0%" y1="0%" x2="100%" y2="100%">
      <stop offset="0%" style="stop-color:#0d2b0a"/>
      <stop offset="100%" style="stop-color:#1b4a16"/>
    </linearGradient>
    <radialGradient id="starGlow" cx="50%" cy="20%" r="30%">
      <stop offset="0%" style="stop-color:#fff9c4;stop-opacity:0.6"/>
      <stop offset="100%" style="stop-color:#fff9c4;stop-opacity:0"/>
    </radialGradient>
    <linearGradient id="snow5" x1="0%" y1="0%" x2="0%" y2="100%">
      <stop offset="0%" style="stop-color:#e8f5e9"/>
      <stop offset="100%" style="stop-color:#c8e6c9"/>
    </linearGradient>
  </defs>
  <rect width="800" height="600" fill="url(#bg5)"/>
  <rect width="800" height="600" fill="url(#starGlow)"/>

  <!-- Stars background -->
  <circle cx="50" cy="40" r="2" fill="white" opacity="0.6"/>
  <circle cx="150" cy="25" r="1.5" fill="white" opacity="0.5"/>
  <circle cx="250" cy="50" r="2" fill="white" opacity="0.6"/>
  <circle cx="650" cy="30" r="2" fill="white" opacity="0.5"/>
  <circle cx="730" cy="55" r="1.5" fill="white" opacity="0.6"/>
  <circle cx="780" cy="80" r="2" fill="white" opacity="0.4"/>

  <!-- Christmas Tree (large, center) -->
  <!-- Tree layers -->
  <polygon points="400,60 260,240 540,240" fill="#2e7d32"/>
  <polygon points="400,130 230,330 570,330" fill="#388e3c"/>
  <polygon points="400,200 200,420 600,420" fill="#43a047"/>
  <!-- Tree trunk -->
  <rect x="370" y="418" width="60" height="50" fill="#795548"/>
  <rect x="360" y="458" width="80" height="15" fill="#6d4c41" rx="3"/>

  <!-- Snow on tree branches -->
  <ellipse cx="400" cy="242" rx="140" ry="12" fill="white" opacity="0.7"/>
  <ellipse cx="400" cy="332" rx="170" ry="12" fill="white" opacity="0.7"/>
  <ellipse cx="400" cy="420" rx="200" ry="12" fill="white" opacity="0.8"/>

  <!-- Star on top -->
  <polygon points="400,45 407,65 428,65 411,78 418,98 400,85 382,98 389,78 372,65 393,65" fill="#f9a825"/>
  <polygon points="400,50 406,67 425,67 410,78 416,96 400,85 384,96 390,78 375,67 394,67" fill="#ffee58"/>
  <circle cx="400" cy="72" r="8" fill="white" opacity="0.5"/>

  <!-- Ornaments on tree -->
  <circle cx="350" cy="195" r="12" fill="#e53935"/>
  <rect x="347" y="182" width="6" height="8" fill="#f9a825" rx="1"/>
  <circle cx="450" cy="200" r="12" fill="#1565c0"/>
  <rect x="447" y="187" width="6" height="8" fill="#f9a825" rx="1"/>
  <circle cx="380" cy="280" r="13" fill="#9c27b0"/>
  <rect x="377" y="266" width="6" height="9" fill="#f9a825" rx="1"/>
  <circle cx="420" cy="275" r="11" fill="#ff9800"/>
  <rect x="417" y="263" width="6" height="8" fill="#f9a825" rx="1"/>
  <circle cx="340" cy="350" r="13" fill="#00897b"/>
  <rect x="337" y="336" width="6" height="9" fill="#f9a825" rx="1"/>
  <circle cx="460" cy="345" r="12" fill="#e53935"/>
  <rect x="457" y="332" width="6" height="8" fill="#f9a825" rx="1"/>
  <circle cx="310" cy="385" r="11" fill="#f9a825"/>
  <rect x="307" y="373" width="6" height="8" fill="#f9a825" rx="1"/>
  <circle cx="490" cy="380" r="13" fill="#1565c0"/>
  <rect x="487" y="366" width="6" height="9" fill="#f9a825" rx="1"/>
  <circle cx="370" cy="390" r="10" fill="#e53935"/>
  <circle cx="430" cy="392" r="12" fill="#9c27b0"/>

  <!-- Lights / garland -->
  <circle cx="355" cy="175" r="5" fill="#ffee58" opacity="0.9"/>
  <circle cx="445" cy="180" r="5" fill="#ef5350" opacity="0.9"/>
  <circle cx="360" cy="265" r="5" fill="#42a5f5" opacity="0.9"/>
  <circle cx="440" cy="260" r="5" fill="#66bb6a" opacity="0.9"/>
  <circle cx="320" cy="340" r="5" fill="#ffee58" opacity="0.9"/>
  <circle cx="480" cy="335" r="5" fill="#ef5350" opacity="0.9"/>
  <circle cx="360" cy="370" r="4" fill="#42a5f5" opacity="0.9"/>
  <circle cx="440" cy="375" r="4" fill="#66bb6a" opacity="0.9"/>

  <!-- Snow on ground -->
  <ellipse cx="400" cy="520" rx="420" ry="70" fill="url(#snow5)"/>
  <rect x="0" y="490" width="800" height="110" fill="#e8f5e9"/>

  <!-- Gifts under the tree -->
  <!-- Gift 1 -->
  <rect x="240" y="430" width="80" height="65" fill="#e53935" rx="3"/>
  <rect x="240" y="430" width="80" height="14" fill="#b71c1c" rx="2"/>
  <rect x="274" y="430" width="12" height="65" fill="#fff9c4"/>
  <rect x="240" y="455" width="80" height="10" fill="#fff9c4"/>
  <ellipse cx="280" cy="432" rx="16" ry="8" fill="#fff9c4" transform="rotate(-18,280,432)"/>
  <ellipse cx="280" cy="432" rx="16" ry="8" fill="#ffee58" transform="rotate(18,280,432)"/>
  <circle cx="280" cy="432" r="6" fill="#fff9c4"/>
  <!-- Gift 2 -->
  <rect x="340" y="440" width="60" height="55" fill="#1565c0" rx="3"/>
  <rect x="340" y="440" width="60" height="12" fill="#0d47a1" rx="2"/>
  <rect x="366" y="440" width="10" height="55" fill="#ff9800"/>
  <rect x="340" y="462" width="60" height="9" fill="#ff9800"/>
  <!-- Gift 3 -->
  <rect x="420" y="435" width="75" height="60" fill="#7b1fa2" rx="3"/>
  <rect x="420" y="435" width="75" height="13" fill="#4a148c" rx="2"/>
  <rect x="452" y="435" width="11" height="60" fill="#f9a825"/>
  <rect x="420" y="458" width="75" height="9" fill="#f9a825"/>
  <ellipse cx="457" cy="436" rx="15" ry="7" fill="#f9a825" transform="rotate(-15,457,436)"/>
  <ellipse cx="457" cy="436" rx="15" ry="7" fill="#ff8f00" transform="rotate(15,457,436)"/>
  <circle cx="457" cy="436" r="5" fill="#f9a825"/>
  <!-- Gift 4 (small) -->
  <rect x="510" y="452" width="50" height="43" fill="#00897b" rx="3"/>
  <rect x="510" y="452" width="50" height="11" fill="#00695c" rx="2"/>
  <rect x="531" y="452" width="9" height="43" fill="#e53935"/>
  <rect x="510" y="468" width="50" height="8" fill="#e53935"/>

  <!-- Text banner -->
  <rect x="160" y="510" width="480" height="68" fill="rgba(0,0,0,0.4)" rx="10"/>
  <text x="400" y="540" font-family="Georgia, serif" font-size="22" fill="white" text-anchor="middle" font-weight="bold">Paczki pod choinką</text>
  <text x="400" y="564" font-family="Georgia, serif" font-size="17" fill="#f9a825" text-anchor="middle">DPS Zielona Przystań · Grudzień 2025</text>

  <rect x="10" y="10" width="780" height="580" fill="none" stroke="rgba(255,255,255,0.15)" stroke-width="3" rx="8"/>
</svg>
